<?xml version="1.0" encoding="UTF-8"?>
<svg xmlns="http://www.w3.org/2000/svg" xmlns:xlink="http://www.w3.org/1999/xlink" width="1920" height="1080" viewBox="0 0 1920 1080">
<defs>
<g>
<g id="glyph-0-0">
<path d="M 3.867188 0 L 5.511719 0 L 3.945312 -2.621094 C 4.746094 -2.996094 5.128906 -3.476562 5.128906 -4.285156 C 5.128906 -5.566406 4.265625 -6.160156 2.597656 -6.160156 L 0.578125 -6.160156 L 0.578125 0 L 2.035156 0 L 2.035156 -2.355469 L 2.605469 -2.355469 Z M 2.035156 -5.136719 L 2.558594 -5.136719 C 3.28125 -5.136719 3.628906 -4.878906 3.628906 -4.285156 C 3.628906 -3.636719 3.289062 -3.359375 2.648438 -3.359375 L 2.035156 -3.359375 Z "/>
</g>
<g id="glyph-0-1">
<path d="M 6.230469 -6.160156 L 4.382812 -6.160156 L 3.519531 -1.980469 L 2.597656 -6.160156 L 0.753906 -6.160156 L 0.292969 0 L 1.714844 0 L 1.824219 -2.390625 C 1.859375 -3.253906 1.859375 -4.019531 1.796875 -4.925781 L 2.808594 -0.648438 L 4.1875 -0.648438 L 5.136719 -4.925781 C 5.09375 -4.160156 5.113281 -3.269531 5.15625 -2.410156 L 5.261719 0 L 6.695312 0 Z "/>
</g>
<g id="glyph-0-2">
<path d="M 2.570312 -6.160156 L 0.578125 -6.160156 L 0.578125 0 L 2.035156 0 L 2.035156 -2.054688 L 2.703125 -2.054688 C 4.125 -2.054688 5.136719 -2.71875 5.136719 -4.152344 C 5.136719 -5.503906 4.160156 -6.160156 2.570312 -6.160156 Z M 2.578125 -3.101562 L 2.035156 -3.101562 L 2.035156 -5.121094 L 2.550781 -5.121094 C 3.269531 -5.121094 3.636719 -4.808594 3.636719 -4.152344 C 3.636719 -3.378906 3.234375 -3.101562 2.578125 -3.101562 Z "/>
</g>
<g id="glyph-0-3">
<rect x="0" y="0" width="0" height="0" mask="url(#mask-0)"/>
</g>
<g id="glyph-0-4">
<path d="M 4.65625 -4.71875 L 3.210938 -4.71875 L 2.285156 -0.898438 L 1.441406 -4.71875 L -0.0546875 -4.71875 L 1.386719 0 L 1.867188 0 C 1.609375 0.605469 1.269531 0.871094 0.347656 0.988281 L 0.496094 1.972656 C 1.980469 1.894531 2.78125 1.199219 3.15625 0.0078125 Z "/>
</g>
<g id="glyph-0-5">
<path d="M 3.378906 -6.746094 L 3.378906 -4.425781 C 3.09375 -4.703125 2.710938 -4.871094 2.285156 -4.871094 C 1.066406 -4.871094 0.328125 -3.832031 0.328125 -2.375 C 0.328125 -0.84375 0.925781 0.152344 2.125 0.152344 C 2.765625 0.152344 3.199219 -0.160156 3.46875 -0.550781 L 3.539062 0 L 4.78125 0 L 4.78125 -6.597656 Z M 2.570312 -0.878906 C 2.105469 -0.878906 1.785156 -1.191406 1.785156 -2.363281 C 1.785156 -3.421875 2.140625 -3.847656 2.648438 -3.847656 C 2.953125 -3.847656 3.164062 -3.699219 3.378906 -3.449219 L 3.378906 -1.40625 C 3.15625 -1.058594 2.898438 -0.878906 2.570312 -0.878906 Z "/>
</g>
<g id="glyph-0-6">
<path d="M 4.535156 -4.71875 L 3.128906 -4.71875 L 3.128906 -1.441406 C 2.925781 -1.085938 2.65625 -0.890625 2.363281 -0.890625 C 2.070312 -0.890625 1.910156 -1.03125 1.910156 -1.511719 L 1.910156 -4.71875 L 0.507812 -4.71875 L 0.507812 -1.332031 C 0.507812 -0.417969 0.941406 0.152344 1.824219 0.152344 C 2.445312 0.152344 2.90625 -0.0976562 3.253906 -0.59375 L 3.316406 0 L 4.535156 0 Z "/>
</g>
<g id="glyph-0-7">
<path d="M 4.300781 -1.367188 L 4.300781 -3.199219 C 4.300781 -4.292969 3.714844 -4.871094 2.347656 -4.871094 C 1.8125 -4.871094 1.164062 -4.746094 0.570312 -4.523438 L 0.890625 -3.601562 C 1.359375 -3.761719 1.824219 -3.847656 2.125 -3.847656 C 2.703125 -3.847656 2.925781 -3.679688 2.925781 -3.121094 L 2.925781 -2.914062 L 2.445312 -2.914062 C 1.011719 -2.914062 0.230469 -2.355469 0.230469 -1.324219 C 0.230469 -0.460938 0.828125 0.152344 1.769531 0.152344 C 2.328125 0.152344 2.855469 -0.0351562 3.191406 -0.550781 C 3.414062 -0.0898438 3.777344 0.078125 4.328125 0.125 L 4.621094 -0.792969 C 4.398438 -0.871094 4.300781 -1.003906 4.300781 -1.367188 Z M 2.179688 -0.851562 C 1.832031 -0.851562 1.625 -1.074219 1.625 -1.449219 C 1.625 -1.921875 1.9375 -2.140625 2.578125 -2.140625 L 2.925781 -2.140625 L 2.925781 -1.296875 C 2.753906 -1.023438 2.496094 -0.851562 2.179688 -0.851562 Z "/>
</g>
<g id="glyph-0-8">
<path d="M 1.804688 0.152344 C 2.140625 0.152344 2.445312 0.078125 2.65625 -0.0078125 L 2.382812 -1.003906 C 2.320312 -0.976562 2.25 -0.960938 2.152344 -0.960938 C 1.980469 -0.960938 1.910156 -1.058594 1.910156 -1.253906 L 1.910156 -6.746094 L 0.507812 -6.597656 L 0.507812 -1.199219 C 0.507812 -0.335938 0.988281 0.152344 1.804688 0.152344 Z "/>
</g>
</g>
<image id="source-47" x="0" y="0" width="0" height="0"/>
<mask id="mask-0">
<use xlink:href="#source-47"/>
</mask>
</defs>
<g fill="rgb(100%, 100%, 100%)" fill-opacity="1">
<use xlink:href="#glyph-0-0" x="30" y="28.311523"/>
<use xlink:href="#glyph-0-1" x="35" y="28.311523"/>
<use xlink:href="#glyph-0-2" x="42" y="28.311523"/>
<use xlink:href="#glyph-0-3" x="47" y="28.311523"/>
<use xlink:href="#glyph-0-4" x="49" y="28.311523"/>
<use xlink:href="#glyph-0-3" x="54" y="28.311523"/>
<use xlink:href="#glyph-0-5" x="56" y="28.311523"/>
<use xlink:href="#glyph-0-6" x="61" y="28.311523"/>
<use xlink:href="#glyph-0-7" x="66" y="28.311523"/>
<use xlink:href="#glyph-0-8" x="71" y="28.311523"/>
</g>
</svg>
