<?xml version="1.0" encoding="UTF-8"?>
<svg xmlns="http://www.w3.org/2000/svg" xmlns:xlink="http://www.w3.org/1999/xlink" width="1920" height="1080" viewBox="0 0 1920 1080">
<defs>
<g>
<g id="glyph-0-0">
<path d="M 1.734375 -6.125 L 0.890625 -6.125 L 0.890625 0 L 1.734375 0 Z "/>
</g>
<g id="glyph-0-1">
<path d="M 3.050781 -4.792969 C 2.4375 -4.792969 1.9375 -4.472656 1.617188 -3.992188 L 1.546875 -4.683594 L 0.84375 -4.683594 L 0.84375 0 L 1.664062 0 L 1.664062 -3.324219 C 1.972656 -3.824219 2.328125 -4.152344 2.855469 -4.152344 C 3.308594 -4.152344 3.589844 -3.945312 3.589844 -3.246094 L 3.589844 0 L 4.410156 0 L 4.410156 -3.359375 C 4.410156 -4.25 3.910156 -4.792969 3.050781 -4.792969 Z "/>
</g>
<g id="glyph-0-2">
<path d="M 2.898438 -0.773438 C 2.667969 -0.632812 2.480469 -0.570312 2.277344 -0.570312 C 1.867188 -0.570312 1.714844 -0.792969 1.714844 -1.261719 L 1.714844 -4.054688 L 2.738281 -4.054688 L 2.828125 -4.683594 L 1.714844 -4.683594 L 1.714844 -5.839844 L 0.898438 -5.742188 L 0.898438 -4.683594 L 0.078125 -4.683594 L 0.078125 -4.054688 L 0.898438 -4.054688 L 0.898438 -1.226562 C 0.898438 -0.355469 1.367188 0.105469 2.160156 0.105469 C 2.558594 0.105469 2.898438 0 3.210938 -0.214844 Z "/>
</g>
<g id="glyph-0-3">
<path d="M 2.878906 -4.792969 C 2.3125 -4.792969 1.875 -4.4375 1.625 -3.734375 L 1.546875 -4.683594 L 0.84375 -4.683594 L 0.84375 0 L 1.664062 0 L 1.664062 -2.675781 C 1.859375 -3.574219 2.195312 -3.992188 2.78125 -3.992188 C 2.953125 -3.992188 3.050781 -3.972656 3.191406 -3.9375 L 3.34375 -4.738281 C 3.199219 -4.773438 3.03125 -4.792969 2.878906 -4.792969 Z "/>
</g>
<g id="glyph-0-4">
<path d="M 2.605469 -4.792969 C 1.269531 -4.792969 0.507812 -3.785156 0.507812 -2.339844 C 0.507812 -0.851562 1.261719 0.105469 2.597656 0.105469 C 3.921875 0.105469 4.683594 -0.898438 4.683594 -2.347656 C 4.683594 -3.832031 3.9375 -4.792969 2.605469 -4.792969 Z M 2.605469 -4.132812 C 3.378906 -4.132812 3.804688 -3.566406 3.804688 -2.347656 C 3.804688 -1.121094 3.378906 -0.550781 2.597656 -0.550781 C 1.8125 -0.550781 1.386719 -1.121094 1.386719 -2.339844 C 1.386719 -3.566406 1.824219 -4.132812 2.605469 -4.132812 Z "/>
</g>
<g id="glyph-0-5">
<rect x="0" y="0" width="0" height="0" mask="url(#mask-0)"/>
</g>
<g id="glyph-0-6">
<path d="M 4 -1.09375 L 4 -3.234375 C 4 -4.214844 3.484375 -4.792969 2.355469 -4.792969 C 1.832031 -4.792969 1.316406 -4.683594 0.738281 -4.472656 L 0.941406 -3.875 C 1.421875 -4.035156 1.859375 -4.125 2.203125 -4.125 C 2.855469 -4.125 3.183594 -3.875 3.183594 -3.199219 L 3.183594 -2.855469 L 2.460938 -2.855469 C 1.15625 -2.855469 0.398438 -2.3125 0.398438 -1.308594 C 0.398438 -0.472656 0.960938 0.105469 1.894531 0.105469 C 2.460938 0.105469 2.960938 -0.105469 3.289062 -0.59375 C 3.429688 -0.132812 3.734375 0.0546875 4.203125 0.105469 L 4.390625 -0.460938 C 4.152344 -0.550781 4 -0.683594 4 -1.09375 Z M 2.082031 -0.507812 C 1.546875 -0.507812 1.269531 -0.800781 1.269531 -1.351562 C 1.269531 -1.992188 1.707031 -2.3125 2.570312 -2.3125 L 3.183594 -2.3125 L 3.183594 -1.234375 C 2.914062 -0.746094 2.558594 -0.507812 2.082031 -0.507812 Z "/>
</g>
<g id="glyph-0-7">
<path d="M 1.777344 0.105469 C 2.019531 0.105469 2.25 0.0429688 2.425781 -0.0546875 L 2.214844 -0.621094 C 2.125 -0.585938 2.027344 -0.570312 1.910156 -0.570312 C 1.699219 -0.570312 1.617188 -0.695312 1.617188 -0.941406 L 1.617188 -6.667969 L 0.800781 -6.570312 L 0.800781 -0.925781 C 0.800781 -0.257812 1.183594 0.105469 1.777344 0.105469 Z "/>
</g>
<g id="glyph-0-8">
<path d="M 2.996094 -4.792969 C 2.460938 -4.792969 1.957031 -4.535156 1.609375 -4.054688 L 1.546875 -4.683594 L 0.84375 -4.683594 L 0.84375 1.894531 L 1.664062 1.796875 L 1.664062 -0.425781 C 1.964844 -0.0625 2.382812 0.105469 2.890625 0.105469 C 4.097656 0.105469 4.730469 -0.925781 4.730469 -2.347656 C 4.730469 -3.824219 4.242188 -4.792969 2.996094 -4.792969 Z M 2.695312 -0.558594 C 2.265625 -0.558594 1.902344 -0.765625 1.664062 -1.128906 L 1.664062 -3.414062 C 1.910156 -3.785156 2.292969 -4.140625 2.792969 -4.140625 C 3.492188 -4.140625 3.847656 -3.566406 3.847656 -2.347656 C 3.847656 -1.121094 3.441406 -0.558594 2.695312 -0.558594 Z "/>
</g>
<g id="glyph-0-9">
<path d="M 2.988281 -4.792969 C 2.417969 -4.792969 1.980469 -4.535156 1.664062 -4.097656 L 1.664062 -6.667969 L 0.84375 -6.570312 L 0.84375 0 L 1.566406 0 L 1.644531 -0.515625 C 1.964844 -0.125 2.375 0.105469 2.890625 0.105469 C 4.027344 0.105469 4.730469 -0.878906 4.730469 -2.347656 C 4.730469 -3.910156 4.042969 -4.792969 2.988281 -4.792969 Z M 2.695312 -0.542969 C 2.277344 -0.542969 1.902344 -0.800781 1.664062 -1.171875 L 1.664062 -3.414062 C 1.902344 -3.785156 2.238281 -4.140625 2.753906 -4.140625 C 3.414062 -4.140625 3.847656 -3.679688 3.847656 -2.347656 C 3.847656 -1.066406 3.378906 -0.542969 2.695312 -0.542969 Z "/>
</g>
<g id="glyph-0-10">
<path d="M 4.382812 -2.480469 C 4.382812 -3.910156 3.714844 -4.792969 2.453125 -4.792969 C 1.246094 -4.792969 0.507812 -3.75 0.507812 -2.292969 C 0.507812 -0.808594 1.269531 0.105469 2.578125 0.105469 C 3.226562 0.105469 3.75 -0.117188 4.214844 -0.480469 L 3.859375 -0.96875 C 3.449219 -0.683594 3.101562 -0.558594 2.640625 -0.558594 C 1.964844 -0.558594 1.457031 -0.976562 1.378906 -2.0625 L 4.363281 -2.0625 C 4.375 -2.167969 4.382812 -2.320312 4.382812 -2.480469 Z M 3.574219 -2.667969 L 1.378906 -2.667969 C 1.441406 -3.707031 1.847656 -4.140625 2.472656 -4.140625 C 3.210938 -4.140625 3.574219 -3.636719 3.574219 -2.71875 Z "/>
</g>
<g id="glyph-0-11">
<path d="M 5.546875 -4.792969 C 4.914062 -4.792969 4.488281 -4.453125 4.152344 -3.945312 C 3.972656 -4.480469 3.546875 -4.792969 2.96875 -4.792969 C 2.355469 -4.792969 1.929688 -4.472656 1.617188 -4 L 1.546875 -4.683594 L 0.84375 -4.683594 L 0.84375 0 L 1.664062 0 L 1.664062 -3.324219 C 1.972656 -3.824219 2.257812 -4.152344 2.765625 -4.152344 C 3.121094 -4.152344 3.421875 -3.945312 3.421875 -3.246094 L 3.421875 0 L 4.242188 0 L 4.242188 -3.324219 C 4.558594 -3.824219 4.835938 -4.152344 5.34375 -4.152344 C 5.699219 -4.152344 6 -3.945312 6 -3.246094 L 6 0 L 6.820312 0 L 6.820312 -3.359375 C 6.820312 -4.242188 6.3125 -4.792969 5.546875 -4.792969 Z "/>
</g>
</g>
<image id="source-10" x="0" y="0" width="0" height="0"/>
<mask id="mask-0">
<use xlink:href="#source-10"/>
</mask>
</defs>
<g fill="rgb(100%, 100%, 100%)" fill-opacity="1">
<use xlink:href="#glyph-0-0" x="30" y="28.311523"/>
<use xlink:href="#glyph-0-1" x="33" y="28.311523"/>
<use xlink:href="#glyph-0-2" x="38" y="28.311523"/>
<use xlink:href="#glyph-0-3" x="41" y="28.311523"/>
<use xlink:href="#glyph-0-4" x="44" y="28.311523"/>
<use xlink:href="#glyph-0-5" x="49" y="28.311523"/>
<use xlink:href="#glyph-0-6" x="51" y="28.311523"/>
<use xlink:href="#glyph-0-7" x="56" y="28.311523"/>
<use xlink:href="#glyph-0-5" x="59" y="28.311523"/>
<use xlink:href="#glyph-0-8" x="61" y="28.311523"/>
<use xlink:href="#glyph-0-3" x="66" y="28.311523"/>
<use xlink:href="#glyph-0-4" x="69" y="28.311523"/>
<use xlink:href="#glyph-0-9" x="74" y="28.311523"/>
<use xlink:href="#glyph-0-7" x="79" y="28.311523"/>
<use xlink:href="#glyph-0-10" x="82" y="28.311523"/>
<use xlink:href="#glyph-0-11" x="87" y="28.311523"/>
<use xlink:href="#glyph-0-6" x="95" y="28.311523"/>
</g>
</svg>
