<?xml version="1.0" encoding="UTF-8"?>
<svg xmlns="http://www.w3.org/2000/svg" xmlns:xlink="http://www.w3.org/1999/xlink" width="1920" height="1080" viewBox="0 0 1920 1080">
<defs>
<g>
<g id="glyph-0-0">
<path d="M 2.035156 -5.742188 L 0.832031 -5.742188 L 0.832031 0 L 2.207031 0 C 3.449219 0 4.90625 -0.558594 4.90625 -2.898438 C 4.90625 -5.28125 3.5 -5.742188 2.035156 -5.742188 Z M 2.207031 -5.109375 C 3.125 -5.109375 4.066406 -4.839844 4.066406 -2.898438 C 4.066406 -1.007812 3.167969 -0.625 2.265625 -0.625 L 1.625 -0.625 L 1.625 -5.109375 Z "/>
</g>
<g id="glyph-0-1">
<path d="M 4.109375 -2.324219 C 4.109375 -3.667969 3.484375 -4.492188 2.300781 -4.492188 C 1.167969 -4.492188 0.476562 -3.515625 0.476562 -2.148438 C 0.476562 -0.757812 1.191406 0.101562 2.417969 0.101562 C 3.023438 0.101562 3.515625 -0.109375 3.949219 -0.449219 L 3.617188 -0.910156 C 3.234375 -0.640625 2.910156 -0.523438 2.476562 -0.523438 C 1.839844 -0.523438 1.367188 -0.917969 1.292969 -1.933594 L 4.089844 -1.933594 C 4.101562 -2.035156 4.109375 -2.175781 4.109375 -2.324219 Z M 3.351562 -2.5 L 1.292969 -2.5 C 1.351562 -3.476562 1.734375 -3.882812 2.316406 -3.882812 C 3.007812 -3.882812 3.351562 -3.40625 3.351562 -2.550781 Z "/>
</g>
<g id="glyph-0-2">
<path d="M 2.300781 -6.25 C 1.234375 -6.25 0.785156 -5.707031 0.785156 -4.964844 L 0.785156 -4.390625 L 0.0820312 -4.390625 L 0.0820312 -3.800781 L 0.785156 -3.800781 L 0.785156 0 L 1.550781 0 L 1.550781 -3.800781 L 3.234375 -3.800781 L 3.234375 0 L 4 0 L 4 -4.390625 L 1.550781 -4.390625 L 1.550781 -4.976562 C 1.550781 -5.390625 1.707031 -5.625 2.324219 -5.625 C 2.667969 -5.625 2.976562 -5.550781 3.25 -5.417969 L 3.515625 -5.949219 C 3.160156 -6.132812 2.792969 -6.25 2.300781 -6.25 Z "/>
</g>
<g id="glyph-0-3">
<path d="M 2.859375 -4.492188 C 2.285156 -4.492188 1.816406 -4.191406 1.515625 -3.742188 L 1.449219 -4.390625 L 0.792969 -4.390625 L 0.792969 0 L 1.558594 0 L 1.558594 -3.117188 C 1.851562 -3.582031 2.183594 -3.890625 2.675781 -3.890625 C 3.101562 -3.890625 3.367188 -3.699219 3.367188 -3.042969 L 3.367188 0 L 4.132812 0 L 4.132812 -3.148438 C 4.132812 -3.984375 3.667969 -4.492188 2.859375 -4.492188 Z "/>
</g>
<g id="glyph-0-4">
<path d="M 1.167969 -6.5 C 0.851562 -6.5 0.632812 -6.273438 0.632812 -5.976562 C 0.632812 -5.683594 0.851562 -5.457031 1.167969 -5.457031 C 1.492188 -5.457031 1.707031 -5.683594 1.707031 -5.976562 C 1.707031 -6.273438 1.492188 -6.5 1.167969 -6.5 Z M 1.558594 -4.390625 L 0.792969 -4.390625 L 0.792969 0 L 1.558594 0 Z "/>
</g>
<g id="glyph-0-5">
<path d="M 2.390625 -4.492188 C 1.199219 -4.492188 0.476562 -3.558594 0.476562 -2.160156 C 0.476562 -0.742188 1.207031 0.101562 2.390625 0.101562 C 2.898438 0.101562 3.339844 -0.0664062 3.734375 -0.382812 L 3.382812 -0.882812 C 3.050781 -0.667969 2.792969 -0.550781 2.425781 -0.550781 C 1.734375 -0.550781 1.300781 -1.023438 1.300781 -2.175781 C 1.300781 -3.316406 1.734375 -3.859375 2.425781 -3.859375 C 2.792969 -3.859375 3.066406 -3.75 3.367188 -3.53125 L 3.734375 -4.015625 C 3.324219 -4.359375 2.910156 -4.492188 2.390625 -4.492188 Z "/>
</g>
<g id="glyph-0-6">
<path d="M 3.089844 -6.675781 L 1.433594 -5.726562 L 1.667969 -5.316406 L 3.433594 -6.03125 Z M 2.441406 -4.492188 C 1.191406 -4.492188 0.476562 -3.550781 0.476562 -2.191406 C 0.476562 -0.800781 1.183594 0.101562 2.433594 0.101562 C 3.675781 0.101562 4.390625 -0.839844 4.390625 -2.199219 C 4.390625 -3.589844 3.691406 -4.492188 2.441406 -4.492188 Z M 2.441406 -3.875 C 3.167969 -3.875 3.566406 -3.339844 3.566406 -2.199219 C 3.566406 -1.050781 3.167969 -0.515625 2.433594 -0.515625 C 1.699219 -0.515625 1.300781 -1.050781 1.300781 -2.191406 C 1.300781 -3.339844 1.707031 -3.875 2.441406 -3.875 Z "/>
</g>
<g id="glyph-0-7">
<rect x="0" y="0" width="0" height="0" mask="url(#mask-0)"/>
</g>
<g id="glyph-0-8">
<path d="M 2.800781 -4.492188 C 2.265625 -4.492188 1.859375 -4.25 1.558594 -3.839844 L 1.558594 -6.25 L 0.792969 -6.15625 L 0.792969 0 L 1.464844 0 L 1.542969 -0.484375 C 1.839844 -0.117188 2.226562 0.101562 2.707031 0.101562 C 3.773438 0.101562 4.433594 -0.824219 4.433594 -2.199219 C 4.433594 -3.667969 3.792969 -4.492188 2.800781 -4.492188 Z M 2.523438 -0.507812 C 2.132812 -0.507812 1.785156 -0.75 1.558594 -1.101562 L 1.558594 -3.199219 C 1.785156 -3.550781 2.101562 -3.882812 2.582031 -3.882812 C 3.199219 -3.882812 3.609375 -3.449219 3.609375 -2.199219 C 3.609375 -1 3.167969 -0.507812 2.523438 -0.507812 Z "/>
</g>
<g id="glyph-0-9">
<path d="M 2.699219 -4.492188 C 2.167969 -4.492188 1.757812 -4.15625 1.523438 -3.5 L 1.449219 -4.390625 L 0.792969 -4.390625 L 0.792969 0 L 1.558594 0 L 1.558594 -2.507812 C 1.742188 -3.351562 2.058594 -3.742188 2.609375 -3.742188 C 2.765625 -3.742188 2.859375 -3.726562 2.992188 -3.691406 L 3.132812 -4.441406 C 3 -4.476562 2.839844 -4.492188 2.699219 -4.492188 Z "/>
</g>
<g id="glyph-0-10">
<path d="M 4.015625 -4.390625 L 3.207031 -4.390625 L 2.066406 -0.683594 L 0.917969 -4.390625 L 0.0820312 -4.390625 L 1.601562 0 L 2.523438 0 Z "/>
</g>
<g id="glyph-0-11">
<path d="M 3.425781 -6.25 L 3.425781 -3.949219 C 3.132812 -4.257812 2.757812 -4.492188 2.242188 -4.492188 C 1.167969 -4.492188 0.515625 -3.515625 0.515625 -2.175781 C 0.515625 -0.808594 1.109375 0.101562 2.175781 0.101562 C 2.714844 0.101562 3.160156 -0.167969 3.441406 -0.609375 L 3.515625 0 L 4.191406 0 L 4.191406 -6.15625 Z M 2.339844 -0.507812 C 1.707031 -0.507812 1.339844 -1.035156 1.339844 -2.191406 C 1.339844 -3.332031 1.75 -3.882812 2.410156 -3.882812 C 2.839844 -3.882812 3.148438 -3.65625 3.425781 -3.308594 L 3.425781 -1.160156 C 3.132812 -0.75 2.832031 -0.507812 2.339844 -0.507812 Z "/>
</g>
<g id="glyph-0-12">
<path d="M 2.441406 -4.492188 C 1.191406 -4.492188 0.476562 -3.550781 0.476562 -2.191406 C 0.476562 -0.800781 1.183594 0.101562 2.433594 0.101562 C 3.675781 0.101562 4.390625 -0.839844 4.390625 -2.199219 C 4.390625 -3.589844 3.691406 -4.492188 2.441406 -4.492188 Z M 2.441406 -3.875 C 3.167969 -3.875 3.566406 -3.339844 3.566406 -2.199219 C 3.566406 -1.050781 3.167969 -0.515625 2.433594 -0.515625 C 1.699219 -0.515625 1.300781 -1.050781 1.300781 -2.191406 C 1.300781 -3.339844 1.707031 -3.875 2.441406 -3.875 Z "/>
</g>
<g id="glyph-0-13">
<path d="M 2.808594 -4.492188 C 2.308594 -4.492188 1.832031 -4.25 1.507812 -3.800781 L 1.449219 -4.390625 L 0.792969 -4.390625 L 0.792969 1.773438 L 1.558594 1.683594 L 1.558594 -0.398438 C 1.839844 -0.0585938 2.234375 0.101562 2.707031 0.101562 C 3.839844 0.101562 4.433594 -0.867188 4.433594 -2.199219 C 4.433594 -3.582031 3.976562 -4.492188 2.808594 -4.492188 Z M 2.523438 -0.523438 C 2.125 -0.523438 1.785156 -0.714844 1.558594 -1.058594 L 1.558594 -3.199219 C 1.792969 -3.550781 2.148438 -3.882812 2.617188 -3.882812 C 3.273438 -3.882812 3.609375 -3.339844 3.609375 -2.199219 C 3.609375 -1.050781 3.226562 -0.523438 2.523438 -0.523438 Z "/>
</g>
<g id="glyph-0-14">
<path d="M 2.714844 -0.726562 C 2.5 -0.589844 2.324219 -0.535156 2.132812 -0.535156 C 1.75 -0.535156 1.609375 -0.742188 1.609375 -1.183594 L 1.609375 -3.800781 L 2.566406 -3.800781 L 2.648438 -4.390625 L 1.609375 -4.390625 L 1.609375 -5.476562 L 0.839844 -5.382812 L 0.839844 -4.390625 L 0.0742188 -4.390625 L 0.0742188 -3.800781 L 0.839844 -3.800781 L 0.839844 -1.148438 C 0.839844 -0.332031 1.285156 0.101562 2.023438 0.101562 C 2.398438 0.101562 2.714844 0 3.007812 -0.199219 Z "/>
</g>
</g>
<image id="source-42" x="0" y="0" width="0" height="0"/>
<mask id="mask-0">
<use xlink:href="#source-42"/>
</mask>
</defs>
<g fill="rgb(100%, 100%, 100%)" fill-opacity="1">
<use xlink:href="#glyph-0-0" x="30" y="27.791016"/>
<use xlink:href="#glyph-0-1" x="35" y="27.791016"/>
<use xlink:href="#glyph-0-2" x="40" y="27.791016"/>
<use xlink:href="#glyph-0-3" x="45" y="27.791016"/>
<use xlink:href="#glyph-0-4" x="50" y="27.791016"/>
<use xlink:href="#glyph-0-5" x="52" y="27.791016"/>
<use xlink:href="#glyph-0-4" x="56" y="27.791016"/>
<use xlink:href="#glyph-0-6" x="58" y="27.791016"/>
<use xlink:href="#glyph-0-3" x="63" y="27.791016"/>
<use xlink:href="#glyph-0-7" x="68" y="27.791016"/>
<use xlink:href="#glyph-0-8" x="70" y="27.791016"/>
<use xlink:href="#glyph-0-9" x="75" y="27.791016"/>
<use xlink:href="#glyph-0-1" x="78" y="27.791016"/>
<use xlink:href="#glyph-0-10" x="83" y="27.791016"/>
<use xlink:href="#glyph-0-1" x="87" y="27.791016"/>
<use xlink:href="#glyph-0-7" x="92" y="27.791016"/>
<use xlink:href="#glyph-0-11" x="94" y="27.791016"/>
<use xlink:href="#glyph-0-1" x="99" y="27.791016"/>
<use xlink:href="#glyph-0-7" x="104" y="27.791016"/>
<use xlink:href="#glyph-0-5" x="106" y="27.791016"/>
<use xlink:href="#glyph-0-12" x="110" y="27.791016"/>
<use xlink:href="#glyph-0-3" x="115" y="27.791016"/>
<use xlink:href="#glyph-0-5" x="120" y="27.791016"/>
<use xlink:href="#glyph-0-1" x="124" y="27.791016"/>
<use xlink:href="#glyph-0-13" x="129" y="27.791016"/>
<use xlink:href="#glyph-0-14" x="134" y="27.791016"/>
<use xlink:href="#glyph-0-12" x="137" y="27.791016"/>
</g>
</svg>
